<svg width="21" height="21" viewBox="0 0 21 21" fill="none" xmlns="http://www.w3.org/2000/svg">
<path d="M18 1.46878H3C2.30833 1.46878 1.75 2.03545 1.75 2.72712V17.7188C1.75 18.4104 2.30833 18.9771 3 18.9771H18C18.6833 18.9771 19.25 18.4104 19.25 17.7188V2.71878C19.25 2.02712 18.6833 1.46045 18 1.46045V1.46878ZM7.04167 16.4688H4.44167V8.11878H7.04167V16.4688ZM5.74167 6.96878C5.34384 6.96878 4.96231 6.81075 4.68101 6.52944C4.3997 6.24814 4.24167 5.86661 4.24167 5.46878C4.24167 5.07096 4.3997 4.68943 4.68101 4.40812C4.96231 4.12682 5.34384 3.96878 5.74167 3.96878C6.13949 3.96878 6.52102 4.12682 6.80233 4.40812C7.08363 4.68943 7.24167 5.07096 7.24167 5.46878C7.24167 5.86661 7.08363 6.24814 6.80233 6.52944C6.52102 6.81075 6.13949 6.96878 5.74167 6.96878ZM16.7583 16.4688H14.175V12.4021C14.175 11.4354 14.15 10.1938 12.8167 10.1938C11.4667 10.1938 11.2583 11.2438 11.2583 12.3354V16.4688H8.675V8.11878H11.1583V9.26045H11.1917C11.4413 8.83434 11.8016 8.48381 12.2345 8.24611C12.6673 8.00841 13.1565 7.89241 13.65 7.91045C16.275 7.91045 16.7583 9.64378 16.7583 11.8938V16.4688Z" fill="#A1A1AA"/>
</svg>
