<svg width="91" height="24" viewBox="0 0 91 24" fill="none" xmlns="http://www.w3.org/2000/svg">
<g clip-path="url(#clip0_1_45)">
<path d="M16.208 12C16.208 12.7956 15.8919 13.5587 15.3293 14.1213C14.7667 14.6839 14.0037 15 13.208 15C12.4124 15 11.6493 14.6839 11.0867 14.1213C10.5241 13.5587 10.208 12.7956 10.208 12C10.208 11.2044 10.5241 10.4413 11.0867 9.87868C11.6493 9.31607 12.4124 9 13.208 9C14.0037 9 14.7667 9.31607 15.3293 9.87868C15.8919 10.4413 16.208 11.2044 16.208 12Z" fill="#006ADC"/>
<path d="M13.208 21.9C16.928 21.9 20.168 19.848 21.86 16.812L23.78 17.664C22.5176 20.0219 20.5037 21.8904 18.0581 22.973C15.6124 24.0556 12.8752 24.2901 10.2811 23.6394C7.68692 22.9886 5.3845 21.4899 3.7394 19.3812C2.0943 17.2724 1.20082 14.6745 1.20082 12C1.20082 9.32547 2.0943 6.72759 3.7394 4.61885C5.3845 2.5101 7.68692 1.01138 10.2811 0.36063C12.8752 -0.290116 15.6124 -0.0555812 18.0581 1.027C20.5037 2.10957 22.5176 3.97814 23.78 6.33601L21.86 7.20001C21.0138 5.67349 19.779 4.39783 18.2808 3.50233C16.7826 2.60684 15.0744 2.12333 13.3291 2.10083C11.5839 2.07833 9.86368 2.51763 8.34293 3.37421C6.82218 4.23078 5.55491 5.47418 4.66959 6.97838C3.78426 8.48257 3.31234 10.1941 3.30167 11.9395C3.29099 13.6848 3.74194 15.402 4.6088 16.9169C5.47566 18.4318 6.72761 19.6906 8.23777 20.5657C9.74793 21.4408 11.4626 21.9012 13.208 21.9Z" fill="white"/>
<path fill-rule="evenodd" clip-rule="evenodd" d="M13.208 19.5C15.1971 19.5 17.1048 18.7098 18.5113 17.3033C19.9178 15.8968 20.708 13.9891 20.708 12C20.708 10.0109 19.9178 8.10321 18.5113 6.69669C17.1048 5.29016 15.1971 4.49999 13.208 4.49999C11.2189 4.49999 9.31123 5.29016 7.90471 6.69669C6.49818 8.10321 5.70801 10.0109 5.70801 12C5.70801 13.9891 6.49818 15.8968 7.90471 17.3033C9.31123 18.7098 11.2189 19.5 13.208 19.5ZM13.208 17.4C13.9171 17.4 14.6193 17.2603 15.2745 16.9889C15.9297 16.7176 16.5249 16.3198 17.0264 15.8184C17.5278 15.3169 17.9256 14.7216 18.197 14.0665C18.4683 13.4113 18.608 12.7091 18.608 12C18.608 11.2908 18.4683 10.5887 18.197 9.9335C17.9256 9.27834 17.5278 8.68305 17.0264 8.18161C16.5249 7.68017 15.9297 7.28241 15.2745 7.01104C14.6193 6.73966 13.9171 6.59999 13.208 6.59999C11.7758 6.59999 10.4023 7.16891 9.38963 8.18161C8.37693 9.19431 7.80801 10.5678 7.80801 12C7.80801 13.4322 8.37693 14.8057 9.38963 15.8184C10.4023 16.8311 11.7758 17.4 13.208 17.4ZM58.976 18.168C58.2068 18.2047 57.4471 17.9853 56.816 17.544C56.2875 17.1269 55.8744 16.5817 55.616 15.96C55.484 15.6 55.376 15.24 55.28 14.88V17.88H52.832V1.79999H55.28V9.31199C55.376 8.93999 55.496 8.56799 55.64 8.20799C55.916 7.54799 56.324 7.01999 56.864 6.62399C57.4947 6.18189 58.2547 5.96235 59.024 5.99999C59.984 5.99999 60.824 6.23999 61.52 6.74399C62.228 7.23599 62.768 7.94399 63.152 8.85599C63.536 9.75599 63.728 10.824 63.728 12.072C63.728 13.308 63.536 14.376 63.152 15.288C62.8131 16.1422 62.2389 16.8829 61.496 17.424C60.8 17.916 59.96 18.168 58.976 18.168ZM55.544 14.544C55.3595 13.9952 55.2702 13.4189 55.28 12.84V11.328C55.28 10.692 55.376 10.128 55.544 9.62399C55.736 9.13199 56.048 8.73599 56.456 8.44799C56.876 8.15999 57.416 8.01599 58.088 8.01599C58.988 8.01599 59.732 8.33999 60.32 8.99999C60.932 9.65999 61.232 10.68 61.232 12.072C61.232 13.452 60.932 14.472 60.32 15.144C59.732 15.816 58.988 16.152 58.088 16.152C57.416 16.152 56.876 16.008 56.456 15.72C56.048 15.432 55.736 15.036 55.544 14.544Z" fill="white"/>
<path d="M30.716 17.376C31.556 17.868 32.528 18.12 33.668 18.12C35.168 18.12 36.368 17.748 37.268 16.992C38.1613 16.27 38.7935 15.2753 39.068 14.16L36.788 13.104C36.668 13.98 36.38 14.7 35.9 15.264C35.42 15.804 34.7 16.08 33.716 16.08C33.08 16.08 32.516 15.924 32.036 15.624C31.5534 15.2799 31.1787 14.8053 30.956 14.256C30.6986 13.5491 30.5765 12.8001 30.596 12.048C30.596 11.208 30.716 10.488 30.956 9.88801C31.208 9.28801 31.568 8.82001 32.036 8.52001C32.516 8.19601 33.08 8.04001 33.716 8.04001C34.688 8.04001 35.42 8.31601 35.9 8.88001C36.38 9.42001 36.68 10.128 36.788 10.992L39.068 9.96001C38.7935 8.84469 38.1613 7.84997 37.268 7.12801C36.2416 6.33335 34.9643 5.93313 33.668 6.00001C32.528 6.00001 31.544 6.24001 30.716 6.74401C29.876 7.23601 29.24 7.94401 28.772 8.85601C28.3051 9.85404 28.0751 10.9464 28.1 12.048C28.1 13.26 28.328 14.328 28.772 15.24C29.24 16.152 29.888 16.86 30.716 17.376Z" fill="white"/>
<path fill-rule="evenodd" clip-rule="evenodd" d="M42.416 17.376C43.256 17.868 44.24 18.12 45.32 18.12C46.3278 18.1685 47.3279 17.9218 48.1976 17.4103C49.0672 16.8987 49.7687 16.1444 50.216 15.24C50.696 14.328 50.936 13.26 50.936 12.048C50.936 10.836 50.696 9.768 50.216 8.856C49.7805 7.97477 49.0963 7.2405 48.248 6.744C47.3569 6.23661 46.3452 5.97954 45.32 6C44.24 6 43.268 6.24 42.416 6.744C41.576 7.236 40.916 7.944 40.448 8.856C39.966 9.84971 39.7275 10.9439 39.752 12.048C39.752 13.26 39.992 14.328 40.448 15.24C40.8914 16.122 41.5732 16.862 42.416 17.376ZM46.952 15.648C46.496 15.936 45.956 16.08 45.344 16.08C44.744 16.08 44.204 15.936 43.736 15.648C43.28 15.36 42.896 14.928 42.632 14.328C42.3518 13.6016 42.2212 12.8261 42.248 12.048C42.248 11.124 42.368 10.368 42.632 9.768C42.908 9.168 43.28 8.736 43.736 8.448C44.204 8.16 44.744 8.016 45.344 8.016C45.944 8.016 46.496 8.16 46.952 8.448C47.432 8.736 47.792 9.168 48.056 9.768C48.332 10.368 48.464 11.124 48.464 12.048C48.464 12.972 48.332 13.728 48.056 14.328C47.804 14.928 47.432 15.36 46.952 15.648ZM74.048 17.88H75.584V15.744H74.84C74.6679 15.755 74.4976 15.7039 74.36 15.6C74.264 15.48 74.216 15.3 74.216 15.048V10.512C74.216 9.084 73.82 7.992 73.04 7.2C72.272 6.396 71.168 6 69.728 6C68.7132 5.98339 67.7095 6.21264 66.8026 6.66819C65.8957 7.12374 65.1125 7.79204 64.52 8.616L66.08 10.344C66.3927 9.72844 66.8447 9.1943 67.4 8.784C68.0031 8.35966 68.7268 8.14086 69.464 8.16C70.424 8.16 71.06 8.4 71.36 8.88C71.624 9.276 71.78 9.744 71.828 10.296L67.808 12.048C66.908 12.408 66.188 12.864 65.648 13.392C65.12 13.92 64.856 14.592 64.856 15.384C64.856 16.2 65.132 16.86 65.672 17.376C66.3027 17.9007 67.1089 18.1666 67.928 18.12C68.6215 18.15 69.3094 17.9834 69.9123 17.6394C70.5153 17.2955 71.0088 16.7882 71.336 16.176C71.588 15.732 71.78 15.288 71.888 14.856V15.624C71.888 16.188 71.984 16.632 72.176 16.968C72.368 17.292 72.62 17.52 72.944 17.664C73.28 17.808 73.652 17.88 74.048 17.88ZM71.888 13.392V12L68.744 13.464C68.216 13.704 67.832 13.944 67.592 14.184C67.3747 14.4094 67.2541 14.7109 67.256 15.024C67.256 15.384 67.376 15.66 67.616 15.864C67.868 16.056 68.252 16.152 68.768 16.152C69.236 16.152 69.644 16.092 70.016 15.96C70.5656 15.795 71.0461 15.4547 71.3841 14.991C71.7222 14.5273 71.8991 13.9657 71.888 13.392Z" fill="white"/>
<path d="M79.652 17.88H77.204V1.79999H79.652V17.88ZM84.26 17.736C84.764 18.012 85.376 18.144 86.072 18.144C86.7028 18.1686 87.3304 18.042 87.9023 17.7748C88.4743 17.5076 88.9741 17.1076 89.36 16.608L88.592 14.328C88.424 14.664 88.16 15 87.824 15.336C87.488 15.66 87.104 15.816 86.624 15.816C86.192 15.816 85.832 15.696 85.544 15.48C85.28 15.252 85.136 14.808 85.136 14.136V8.13599H88.808V6.23999H85.136V3.14399L82.7 4.77599V6.23999H80.852V8.13599H82.7V14.784C82.7 15.456 82.844 16.044 83.108 16.56C83.384 17.052 83.768 17.448 84.26 17.736Z" fill="white"/>
</g>
<defs>
<clipPath id="clip0_1_45">
<rect width="90" height="24" fill="white" transform="translate(0.5)"/>
</clipPath>
</defs>
</svg>
